<?xml version="1.0" encoding="UTF-8"?>
<!DOCTYPE svg PUBLIC "-//W3C//DTD SVG 1.1//EN" "http://www.w3.org/Graphics/SVG/1.1/DTD/svg11.dtd">
<svg xmlns="http://www.w3.org/2000/svg" version="1.1" width="256px" height="256px" style="shape-rendering:geometricPrecision; text-rendering:geometricPrecision; image-rendering:optimizeQuality; fill-rule:evenodd; clip-rule:evenodd" xmlns:xlink="http://www.w3.org/1999/xlink">
<g><path style="opacity:1" fill="#00adec" d="M 39.5,-0.5 C 98.1667,-0.5 156.833,-0.5 215.5,-0.5C 216.987,0.803551 218.654,1.97022 220.5,3C 225.551,4.86613 230.551,6.69947 235.5,8.5C 235.67,9.82207 235.337,10.9887 234.5,12C 236.134,12.4935 237.801,12.6602 239.5,12.5C 239.5,13.5 239.5,14.5 239.5,15.5C 242.038,16.0427 244.372,17.0427 246.5,18.5C 246.833,19.1667 247.167,19.8333 247.5,20.5C 249.539,27.3528 251.872,34.0194 254.5,40.5C 254.833,40.5 255.167,40.5 255.5,40.5C 255.5,99.1667 255.5,157.833 255.5,216.5C 253.656,218.279 252.99,220.612 253.5,223.5C 252.263,224.965 251.263,226.632 250.5,228.5C 247.505,231.144 245.505,234.477 244.5,238.5C 244.5,239.167 244.167,239.5 243.5,239.5C 242.167,239.5 240.833,239.5 239.5,239.5C 239.5,240.5 239.5,241.5 239.5,242.5C 237.801,242.34 236.134,242.506 234.5,243C 235.458,244.147 235.125,245.147 233.5,246C 230.002,247.626 226.335,248.793 222.5,249.5C 221.389,251.552 219.723,252.886 217.5,253.5C 214.482,253.665 211.482,253.498 208.5,253C 209.551,251.615 210.884,250.615 212.5,250C 211.069,249.535 209.903,248.701 209,247.5C 208.5,248 208,248.5 207.5,249C 158.929,249.169 110.429,249.669 62,250.5C 58.3489,249.805 54.5156,249.805 50.5,250.5C 48.0849,248.784 45.4182,248.284 42.5,249C 43.5046,250.507 44.838,251.673 46.5,252.5C 45.3333,252.833 44.1667,253.167 43,253.5C 35.7577,251.657 28.5911,249.657 21.5,247.5C 20.5256,244.504 18.5256,242.837 15.5,242.5C 15.5,241.5 15.5,240.5 15.5,239.5C 14.1667,239.5 12.8333,239.5 11.5,239.5C 9.78194,237.777 8.44861,235.777 7.5,233.5C 6.25263,228.73 4.25263,224.396 1.5,220.5C 0.975875,218.694 0.309209,217.028 -0.5,215.5C -0.5,158.167 -0.5,100.833 -0.5,43.5C 2.21296,39.7159 3.87962,35.3826 4.5,30.5C 7.66222,31.6532 8.32889,30.6532 6.5,27.5C 7.93711,25.4229 8.60378,23.0895 8.5,20.5C 11.5099,19.3471 13.5099,17.1805 14.5,14C 18.1314,13.2159 20.4647,11.0492 21.5,7.5C 23.756,4.59472 26.756,2.92805 30.5,2.5C 33.855,2.31036 36.855,1.31036 39.5,-0.5 Z"/></g>
<g><path style="opacity:0.651" fill="#99dff3" d="M 35.5,-0.5 C 36.8333,-0.5 38.1667,-0.5 39.5,-0.5C 36.855,1.31036 33.855,2.31036 30.5,2.5C 32.0725,1.31271 33.7392,0.312714 35.5,-0.5 Z"/></g>
<g><path style="opacity:1" fill="#66c2e4" d="M 215.5,-0.5 C 216.833,-0.5 218.167,-0.5 219.5,-0.5C 225.417,1.45857 230.75,4.45857 235.5,8.5C 230.551,6.69947 225.551,4.86613 220.5,3C 218.654,1.97022 216.987,0.803551 215.5,-0.5 Z"/></g>
<g><path style="opacity:1" fill="#50b9de" d="M 235.5,8.5 C 239.771,11.1009 243.437,14.4342 246.5,18.5C 244.372,17.0427 242.038,16.0427 239.5,15.5C 239.5,14.5 239.5,13.5 239.5,12.5C 237.801,12.6602 236.134,12.4935 234.5,12C 235.337,10.9887 235.67,9.82207 235.5,8.5 Z"/></g>
<g><path style="opacity:1" fill="#58bedf" d="M 21.5,7.5 C 20.4647,11.0492 18.1314,13.2159 14.5,14C 13.5099,17.1805 11.5099,19.3471 8.5,20.5C 11.1667,14.5 15.5,10.1667 21.5,7.5 Z"/></g>
<g><path style="opacity:0.306" fill="#b6e7f8" d="M 249.5,23.5 C 250.906,23.9731 251.573,24.9731 251.5,26.5C 250.094,26.0269 249.427,25.0269 249.5,23.5 Z"/></g>
<g><path style="opacity:0.286" fill="#b2ebf9" d="M 5.5,24.5 C 5.57298,26.0269 4.90632,27.0269 3.5,27.5C 3.42702,25.9731 4.09368,24.9731 5.5,24.5 Z"/></g>
<g><path style="opacity:1" fill="#3bb3e3" d="M 8.5,20.5 C 8.60378,23.0895 7.93711,25.4229 6.5,27.5C 8.32889,30.6532 7.66222,31.6532 4.5,30.5C 3.87962,35.3826 2.21296,39.7159 -0.5,43.5C -0.5,42.1667 -0.5,40.8333 -0.5,39.5C 1.47249,36.9164 2.47249,33.9164 2.5,30.5C 2.26269,29.209 2.59603,28.209 3.5,27.5C 4.90632,27.0269 5.57298,26.0269 5.5,24.5C 6.02561,22.7697 7.02561,21.4363 8.5,20.5 Z"/></g>
<g><path style="opacity:1" fill="#3caedc" d="M 247.5,20.5 C 248.401,21.2905 249.068,22.2905 249.5,23.5C 249.427,25.0269 250.094,26.0269 251.5,26.5C 252.537,27.9303 253.204,29.597 253.5,31.5C 253.963,34.4824 254.296,37.4824 254.5,40.5C 251.872,34.0194 249.539,27.3528 247.5,20.5 Z"/></g>
<g><path style="opacity:0.757" fill="#91def2" d="M 2.5,30.5 C 2.47249,33.9164 1.47249,36.9164 -0.5,39.5C -0.5,38.1667 -0.5,36.8333 -0.5,35.5C 0.687286,33.9275 1.68729,32.2608 2.5,30.5 Z"/></g>
<g><path style="opacity:0.953" fill="#72cef2" d="M 253.5,31.5 C 254.167,32.5 254.833,33.5 255.5,34.5C 255.5,36.5 255.5,38.5 255.5,40.5C 255.167,40.5 254.833,40.5 254.5,40.5C 254.296,37.4824 253.963,34.4824 253.5,31.5 Z"/></g>
<g><path style="opacity:1" fill="#2daee0" d="M 199.5,73.5 C 199.167,73.5 198.833,73.5 198.5,73.5C 198.489,71.9826 197.823,70.8159 196.5,70C 194.256,69.0943 191.923,68.5943 189.5,68.5C 184.644,69.2667 179.977,70.6001 175.5,72.5C 177.769,71.0242 180.102,69.5242 182.5,68C 183.337,66.9887 183.67,65.8221 183.5,64.5C 185.827,64.7529 187.827,64.0863 189.5,62.5C 191.946,63.9828 191.612,65.1495 188.5,66C 191.893,67.1675 194.559,66.3342 196.5,63.5C 197.292,66.9728 198.292,70.3062 199.5,73.5 Z"/></g>
<g><path style="opacity:1" fill="#dcf9fe" d="M 198.5,73.5 C 193.576,70.0971 188.243,69.5971 182.5,72C 180.578,73.4196 179.245,75.2529 178.5,77.5C 177.289,76.7261 177.289,75.8928 178.5,75C 177.207,74.51 175.873,74.3433 174.5,74.5C 174.833,73.8333 175.167,73.1667 175.5,72.5C 179.977,70.6001 184.644,69.2667 189.5,68.5C 191.923,68.5943 194.256,69.0943 196.5,70C 197.823,70.8159 198.489,71.9826 198.5,73.5 Z"/></g>
<g><path style="opacity:1" fill="#fcfefe" d="M 198.5,73.5 C 198.002,78.1522 197.669,82.8189 197.5,87.5C 196.686,95.5276 195.686,103.528 194.5,111.5C 193.449,116.646 192.782,121.979 192.5,127.5C 191.419,130.627 190.753,133.96 190.5,137.5C 189.017,139.924 187.85,142.591 187,145.5C 185.326,156.126 184.159,166.793 183.5,177.5C 182.504,177.414 181.671,177.748 181,178.5C 180.696,180.441 179.863,182.107 178.5,183.5C 174.555,184.491 170.555,184.824 166.5,184.5C 162.317,182.913 158.65,180.579 155.5,177.5C 154.198,175.178 152.198,173.845 149.5,173.5C 145.074,170.406 140.407,167.739 135.5,165.5C 130.473,161.147 125.14,157.147 119.5,153.5C 118.013,150.087 118.18,146.753 120,143.5C 124.73,138.931 129.563,134.597 134.5,130.5C 137.764,128.906 140.431,126.573 142.5,123.5C 144.455,121.174 146.455,118.841 148.5,116.5C 151.167,114.167 153.833,111.833 156.5,109.5C 159.429,108.088 162.262,106.421 165,104.5C 166.825,105.571 167.992,104.904 168.5,102.5C 167.675,101.614 166.675,101.281 165.5,101.5C 165.227,99.549 165.893,98.049 167.5,97C 167,96.5 166.5,96 166,95.5C 162.733,97.1011 159.233,97.9345 155.5,98C 154.965,100.109 153.965,100.609 152.5,99.5C 151.571,100.689 151.238,102.022 151.5,103.5C 147.104,106.025 143.104,109.025 139.5,112.5C 136.382,114.563 133.048,116.396 129.5,118C 128.29,119.039 127.29,120.206 126.5,121.5C 124.118,122.351 122.118,123.684 120.5,125.5C 113.989,130.259 106.989,134.259 99.5,137.5C 96.5175,137.898 93.5175,138.232 90.5,138.5C 84.2375,136.98 77.9042,135.98 71.5,135.5C 70.9101,134.234 70.4101,132.901 70,131.5C 68.6439,132.38 67.1439,132.714 65.5,132.5C 65.3508,128.877 64.1842,128.543 62,131.5C 58.9277,130.553 57.9277,128.553 59,125.5C 60.6268,124.468 61.7934,123.134 62.5,121.5C 65.2165,121.322 67.8832,120.822 70.5,120C 71.2524,119.329 71.5858,118.496 71.5,117.5C 71.8333,117.5 72.1667,117.5 72.5,117.5C 77.5061,116.829 81.8394,114.829 85.5,111.5C 90.5307,108.655 95.8641,106.322 101.5,104.5C 105.754,103.195 110.088,101.862 114.5,100.5C 115.713,100.253 116.38,99.5862 116.5,98.5C 122.284,95.5401 128.284,92.8734 134.5,90.5C 138.221,89.8124 141.888,88.8124 145.5,87.5C 146.713,87.2528 147.38,86.5862 147.5,85.5C 150.952,82.7816 154.952,81.1149 159.5,80.5C 164.841,79.1096 170.175,77.6096 175.5,76C 174.944,75.6174 174.611,75.1174 174.5,74.5C 175.873,74.3433 177.207,74.51 178.5,75C 177.289,75.8928 177.289,76.7261 178.5,77.5C 179.245,75.2529 180.578,73.4196 182.5,72C 188.243,69.5971 193.576,70.0971 198.5,73.5 Z"/></g>
<g><path style="opacity:1" fill="#dbf8fe" d="M 174.5,74.5 C 174.611,75.1174 174.944,75.6174 175.5,76C 170.175,77.6096 164.841,79.1096 159.5,80.5C 163.975,77.3383 168.975,75.3383 174.5,74.5 Z"/></g>
<g><path style="opacity:1" fill="#33aedf" d="M 175.5,72.5 C 175.167,73.1667 174.833,73.8333 174.5,74.5C 168.975,75.3383 163.975,77.3383 159.5,80.5C 154.952,81.1149 150.952,82.7816 147.5,85.5C 146.167,85.5 144.833,85.5 143.5,85.5C 142.993,84.1411 141.993,83.1411 140.5,82.5C 142.193,81.7717 143.693,80.7717 145,79.5C 147.096,80.7155 146.929,81.5488 144.5,82C 148.297,82.6239 151.63,81.6239 154.5,79C 156.134,78.5065 157.801,78.3398 159.5,78.5C 159.5,77.1667 159.5,75.8333 159.5,74.5C 164.988,74.7521 170.322,74.0855 175.5,72.5 Z"/></g>
<g><path style="opacity:1" fill="#c4f3fe" d="M 198.5,73.5 C 198.833,73.5 199.167,73.5 199.5,73.5C 199.5,74.1667 199.5,74.8333 199.5,75.5C 199.461,79.7329 198.795,83.7329 197.5,87.5C 197.669,82.8189 198.002,78.1522 198.5,73.5 Z"/></g>
<g><path style="opacity:1" fill="#d5f6fd" d="M 143.5,85.5 C 144.833,85.5 146.167,85.5 147.5,85.5C 147.38,86.5862 146.713,87.2528 145.5,87.5C 141.888,88.8124 138.221,89.8124 134.5,90.5C 136.833,89.1667 139.167,87.8333 141.5,86.5C 142.492,86.6716 143.158,86.3382 143.5,85.5 Z"/></g>
<g><path style="opacity:1" fill="#2faddc" d="M 141.5,86.5 C 139.167,87.8333 136.833,89.1667 134.5,90.5C 128.284,92.8734 122.284,95.5401 116.5,98.5C 114.883,99.038 113.216,99.3713 111.5,99.5C 111.821,97.9519 112.821,97.2852 114.5,97.5C 114.33,96.1779 114.663,95.0113 115.5,94C 123.776,90.6362 132.442,88.1362 141.5,86.5 Z"/></g>
<g><path style="opacity:1" fill="#e7f9fd" d="M 156.5,109.5 C 158.167,107.5 159.833,105.5 161.5,103.5C 163.213,102.365 163.88,100.698 163.5,98.5C 159.64,98.0541 156.64,99.3875 154.5,102.5C 153.391,102.557 152.391,102.89 151.5,103.5C 151.238,102.022 151.571,100.689 152.5,99.5C 153.965,100.609 154.965,100.109 155.5,98C 159.233,97.9345 162.733,97.1011 166,95.5C 166.5,96 167,96.5 167.5,97C 165.893,98.049 165.227,99.549 165.5,101.5C 166.675,101.281 167.675,101.614 168.5,102.5C 167.992,104.904 166.825,105.571 165,104.5C 162.262,106.421 159.429,108.088 156.5,109.5 Z"/></g>
<g><path style="opacity:1" fill="#3fadd2" d="M 161.5,103.5 C 161.719,102.325 161.386,101.325 160.5,100.5C 158.821,102.104 156.821,102.771 154.5,102.5C 156.64,99.3875 159.64,98.0541 163.5,98.5C 163.88,100.698 163.213,102.365 161.5,103.5 Z"/></g>
<g><path style="opacity:1" fill="#cdf4fd" d="M 116.5,98.5 C 116.38,99.5862 115.713,100.253 114.5,100.5C 110.088,101.862 105.754,103.195 101.5,104.5C 101.5,104.167 101.5,103.833 101.5,103.5C 104.943,102.354 108.277,101.021 111.5,99.5C 113.216,99.3713 114.883,99.038 116.5,98.5 Z"/></g>
<g><path style="opacity:1" fill="#32acd7" d="M 101.5,103.5 C 101.5,103.833 101.5,104.167 101.5,104.5C 95.8641,106.322 90.5307,108.655 85.5,111.5C 80.738,112.716 76.4047,114.716 72.5,117.5C 72.1667,117.5 71.8333,117.5 71.5,117.5C 68.3135,118.597 65.3135,119.93 62.5,121.5C 58.5913,122.621 56.5913,125.288 56.5,129.5C 55.5,129.5 54.5,129.5 53.5,129.5C 54.4734,124.353 57.4734,120.853 62.5,119C 70.7647,115.49 79.098,112.156 87.5,109C 91.4617,105.649 96.1283,103.816 101.5,103.5 Z"/></g>
<g><path style="opacity:1" fill="#4ab1dd" d="M 199.5,75.5 C 200.162,77.3035 200.495,79.3035 200.5,81.5C 199.134,88.7509 198.3,96.0842 198,103.5C 196.907,106.309 195.74,108.976 194.5,111.5C 195.686,103.528 196.686,95.5276 197.5,87.5C 198.795,83.7329 199.461,79.7329 199.5,75.5 Z"/></g>
<g><path style="opacity:1" fill="#2daee1" d="M 161.5,103.5 C 159.833,105.5 158.167,107.5 156.5,109.5C 153.833,111.833 151.167,114.167 148.5,116.5C 147.787,110.542 145.453,109.542 141.5,113.5C 140.614,114.325 140.281,115.325 140.5,116.5C 139.5,116.5 138.5,116.5 137.5,116.5C 137.733,114.938 138.4,113.605 139.5,112.5C 143.104,109.025 147.104,106.025 151.5,103.5C 152.391,102.89 153.391,102.557 154.5,102.5C 156.821,102.771 158.821,102.104 160.5,100.5C 161.386,101.325 161.719,102.325 161.5,103.5 Z"/></g>
<g><path style="opacity:1" fill="#d4f7fd" d="M 85.5,111.5 C 81.8394,114.829 77.5061,116.829 72.5,117.5C 76.4047,114.716 80.738,112.716 85.5,111.5 Z"/></g>
<g><path style="opacity:1" fill="#54badd" d="M 139.5,112.5 C 138.4,113.605 137.733,114.938 137.5,116.5C 133.512,117.601 129.845,119.267 126.5,121.5C 127.29,120.206 128.29,119.039 129.5,118C 133.048,116.396 136.382,114.563 139.5,112.5 Z"/></g>
<g><path style="opacity:1" fill="#35aedd" d="M 148.5,116.5 C 146.455,118.841 144.455,121.174 142.5,123.5C 139.907,124.754 137.573,126.42 135.5,128.5C 137.341,125.14 139.841,122.14 143,119.5C 143.202,117.744 143.702,116.078 144.5,114.5C 145.524,115.853 146.857,116.52 148.5,116.5 Z"/></g>
<g><path style="opacity:1" fill="#d7f8fd" d="M 71.5,117.5 C 71.5858,118.496 71.2524,119.329 70.5,120C 67.8832,120.822 65.2165,121.322 62.5,121.5C 65.3135,119.93 68.3135,118.597 71.5,117.5 Z"/></g>
<g><path style="opacity:1" fill="#49b4da" d="M 194.5,111.5 C 196.067,117.195 195.4,122.528 192.5,127.5C 192.782,121.979 193.449,116.646 194.5,111.5 Z"/></g>
<g><path style="opacity:1" fill="#c5f4fc" d="M 142.5,123.5 C 140.431,126.573 137.764,128.906 134.5,130.5C 134.833,129.833 135.167,129.167 135.5,128.5C 137.573,126.42 139.907,124.754 142.5,123.5 Z"/></g>
<g><path style="opacity:1" fill="#e2fbfd" d="M 62.5,121.5 C 61.7934,123.134 60.6268,124.468 59,125.5C 57.9277,128.553 58.9277,130.553 62,131.5C 64.1842,128.543 65.3508,128.877 65.5,132.5C 67.1439,132.714 68.6439,132.38 70,131.5C 70.4101,132.901 70.9101,134.234 71.5,135.5C 67.6576,135.108 63.9909,134.108 60.5,132.5C 59.1667,131.5 57.8333,130.5 56.5,129.5C 56.5913,125.288 58.5913,122.621 62.5,121.5 Z"/></g>
<g><path style="opacity:1" fill="#58bbe4" d="M 192.5,127.5 C 192.412,132.536 191.912,137.536 191,142.5C 190.722,143.416 190.222,144.082 189.5,144.5C 189.674,142.139 190.007,139.806 190.5,137.5C 190.753,133.96 191.419,130.627 192.5,127.5 Z"/></g>
<g><path style="opacity:1" fill="#31aed5" d="M 60.5,132.5 C 63.9909,134.108 67.6576,135.108 71.5,135.5C 72.1667,136.167 72.8333,136.833 73.5,137.5C 67.959,138.624 63.6257,136.958 60.5,132.5 Z"/></g>
<g><path style="opacity:1" fill="#26afe2" d="M 135.5,128.5 C 135.167,129.167 134.833,129.833 134.5,130.5C 129.563,134.597 124.73,138.931 120,143.5C 118.18,146.753 118.013,150.087 119.5,153.5C 117.05,153.126 116.05,151.626 116.5,149C 116.784,145.929 117.784,143.095 119.5,140.5C 117.827,138.914 115.827,138.247 113.5,138.5C 113.759,134.932 115.759,133.599 119.5,134.5C 119.5,135.833 119.5,137.167 119.5,138.5C 122.049,138.559 124.049,137.559 125.5,135.5C 126.242,133.892 126.409,132.225 126,130.5C 127.11,132.037 128.61,132.703 130.5,132.5C 130.5,131.167 130.5,129.833 130.5,128.5C 132.167,128.5 133.833,128.5 135.5,128.5 Z"/></g>
<g><path style="opacity:1" fill="#d7f7fc" d="M 71.5,135.5 C 77.9042,135.98 84.2375,136.98 90.5,138.5C 93.5175,138.232 96.5175,137.898 99.5,137.5C 97.3246,139.579 94.658,140.579 91.5,140.5C 86.1012,139.753 80.7679,138.753 75.5,137.5C 74.8333,137.5 74.1667,137.5 73.5,137.5C 72.8333,136.833 72.1667,136.167 71.5,135.5 Z"/></g>
<g><path style="opacity:1" fill="#30aede" d="M 120.5,125.5 C 119.883,127.229 118.883,128.729 117.5,130C 113.167,133 108.833,136 104.5,139C 105.624,139.249 106.624,139.749 107.5,140.5C 105.925,141.446 104.258,141.446 102.5,140.5C 98.1015,141.946 93.6015,142.946 89,143.5C 84.2578,141.875 79.7578,139.875 75.5,137.5C 80.7679,138.753 86.1012,139.753 91.5,140.5C 94.658,140.579 97.3246,139.579 99.5,137.5C 106.989,134.259 113.989,130.259 120.5,125.5 Z"/></g>
<g><path style="opacity:1" fill="#e3fcfe" d="M 190.5,137.5 C 190.007,139.806 189.674,142.139 189.5,144.5C 189.5,144.833 189.5,145.167 189.5,145.5C 187.636,152.578 186.636,159.912 186.5,167.5C 185.982,170.979 184.982,174.312 183.5,177.5C 184.159,166.793 185.326,156.126 187,145.5C 187.85,142.591 189.017,139.924 190.5,137.5 Z"/></g>
<g><path style="opacity:1" fill="#4db0d8" d="M 189.5,145.5 C 189.412,153.1 188.412,160.434 186.5,167.5C 186.636,159.912 187.636,152.578 189.5,145.5 Z"/></g>
<g><path style="opacity:1" fill="#3caeda" d="M 135.5,165.5 C 140.407,167.739 145.074,170.406 149.5,173.5C 151.147,175.326 153.147,176.66 155.5,177.5C 158.65,180.579 162.317,182.913 166.5,184.5C 173.87,188.378 179.537,186.711 183.5,179.5C 183.629,183.009 182.296,185.842 179.5,188C 175.129,188.828 170.795,188.661 166.5,187.5C 156.518,180.354 146.185,174.021 135.5,168.5C 135.5,167.5 135.5,166.5 135.5,165.5 Z"/></g>
<g><path style="opacity:1" fill="#c8f4fc" d="M 149.5,173.5 C 152.198,173.845 154.198,175.178 155.5,177.5C 153.147,176.66 151.147,175.326 149.5,173.5 Z"/></g>
<g><path style="opacity:1" fill="#e4fdfe" d="M 183.5,177.5 C 183.5,178.167 183.5,178.833 183.5,179.5C 179.537,186.711 173.87,188.378 166.5,184.5C 170.555,184.824 174.555,184.491 178.5,183.5C 179.863,182.107 180.696,180.441 181,178.5C 181.671,177.748 182.504,177.414 183.5,177.5 Z"/></g>
<g><path style="opacity:0.992" fill="#7dcce7" d="M 255.5,216.5 C 255.5,217.833 255.5,219.167 255.5,220.5C 254.833,221.5 254.167,222.5 253.5,223.5C 252.99,220.612 253.656,218.279 255.5,216.5 Z"/></g>
<g><path style="opacity:0.063" fill="#c7f9fe" d="M -0.5,215.5 C 0.309209,217.028 0.975875,218.694 1.5,220.5C 1.5,221.167 1.5,221.833 1.5,222.5C 0.833333,221.833 0.166667,221.167 -0.5,220.5C -0.5,218.833 -0.5,217.167 -0.5,215.5 Z"/></g>
<g><path style="opacity:0.259" fill="#a6e7fa" d="M 253.5,223.5 C 253.293,226.241 252.293,228.574 250.5,230.5C 250.5,229.833 250.5,229.167 250.5,228.5C 251.263,226.632 252.263,224.965 253.5,223.5 Z"/></g>
<g><path style="opacity:1" fill="#74c9e7" d="M 1.5,220.5 C 4.25263,224.396 6.25263,228.73 7.5,233.5C 4.21973,230.612 2.21973,226.945 1.5,222.5C 1.5,221.833 1.5,221.167 1.5,220.5 Z"/></g>
<g><path style="opacity:1" fill="#57badd" d="M 250.5,228.5 C 250.5,229.167 250.5,229.833 250.5,230.5C 248.853,233.473 246.853,236.14 244.5,238.5C 245.505,234.477 247.505,231.144 250.5,228.5 Z"/></g>
<g><path style="opacity:1" fill="#55bde0" d="M 11.5,239.5 C 12.8333,239.5 14.1667,239.5 15.5,239.5C 15.5,240.5 15.5,241.5 15.5,242.5C 18.5256,242.837 20.5256,244.504 21.5,247.5C 17.296,245.967 13.9626,243.3 11.5,239.5 Z"/></g>
<g><path style="opacity:1" fill="#11b1ec" d="M 21.5,247.5 C 28.5911,249.657 35.7577,251.657 43,253.5C 44.1667,253.167 45.3333,252.833 46.5,252.5C 44.838,251.673 43.5046,250.507 42.5,249C 45.4182,248.284 48.0849,248.784 50.5,250.5C 54.5156,249.805 58.3489,249.805 62,250.5C 110.429,249.669 158.929,249.169 207.5,249C 208,248.5 208.5,248 209,247.5C 209.903,248.701 211.069,249.535 212.5,250C 210.884,250.615 209.551,251.615 208.5,253C 211.482,253.498 214.482,253.665 217.5,253.5C 215.5,254.167 213.5,254.833 211.5,255.5C 152.5,255.5 93.5,255.5 34.5,255.5C 34.5,255.167 34.5,254.833 34.5,254.5C 32.8243,252.166 30.491,251.166 27.5,251.5C 25.1475,250.66 23.1475,249.326 21.5,247.5 Z"/></g>
<g><path style="opacity:0.945" fill="#7acde8" d="M 231.5,249.5 C 229.388,251.771 226.721,253.104 223.5,253.5C 225.202,250.475 227.869,249.141 231.5,249.5 Z"/></g>
<g><path style="opacity:1" fill="#42b5e2" d="M 243.5,239.5 C 240.401,243.934 236.401,247.267 231.5,249.5C 227.869,249.141 225.202,250.475 223.5,253.5C 222.5,254.167 221.5,254.833 220.5,255.5C 217.5,255.5 214.5,255.5 211.5,255.5C 213.5,254.833 215.5,254.167 217.5,253.5C 219.723,252.886 221.389,251.552 222.5,249.5C 226.335,248.793 230.002,247.626 233.5,246C 235.125,245.147 235.458,244.147 234.5,243C 236.134,242.506 237.801,242.34 239.5,242.5C 239.5,241.5 239.5,240.5 239.5,239.5C 240.833,239.5 242.167,239.5 243.5,239.5 Z"/></g>
<g><path style="opacity:0.882" fill="#83d3ef" d="M 27.5,251.5 C 30.491,251.166 32.8243,252.166 34.5,254.5C 31.8427,254.065 29.5093,253.065 27.5,251.5 Z"/></g>
</svg>
